<svg width="48" height="48" viewBox="0 0 48 48" fill="none" xmlns="http://www.w3.org/2000/svg">
<circle cx="24" cy="24" r="23.6" fill="url(#paint0_linear)" stroke="white" stroke-width="0.8"/>
<path fill-rule="evenodd" clip-rule="evenodd" d="M14.1961 10C14.5724 10.0013 14.9329 10.1514 15.1989 10.4174C15.465 10.6835 15.6151 11.044 15.6164 11.4203V13.7186C15.6151 14.0949 15.465 14.4554 15.1989 14.7214C14.9329 14.9875 14.5724 15.1376 14.1961 15.1389C13.8198 15.1376 13.4593 14.9875 13.1933 14.7214C12.9272 14.4554 12.7771 14.0949 12.7758 13.7186V11.4203C12.7771 11.044 12.9272 10.6835 13.1933 10.4174C13.4593 10.1514 13.8198 10.0013 14.1961 10Z" fill="white"/>
<path fill-rule="evenodd" clip-rule="evenodd" d="M20.7328 10C21.1091 10.0013 21.4696 10.1514 21.7357 10.4174C22.0018 10.6835 22.1518 11.044 22.1531 11.4203V13.7186C22.1518 14.0949 22.0018 14.4554 21.7357 14.7214C21.4696 14.9875 21.1091 15.1376 20.7328 15.1389C20.3566 15.1376 19.9961 14.9875 19.73 14.7214C19.4639 14.4554 19.3139 14.0949 19.3126 13.7186V11.4203C19.3139 11.044 19.4639 10.6835 19.73 10.4174C19.9961 10.1514 20.3566 10.0013 20.7328 10Z" fill="white"/>
<path fill-rule="evenodd" clip-rule="evenodd" d="M27.2671 10C27.643 10.002 28.0029 10.1523 28.2684 10.4183C28.5339 10.6843 28.6836 11.0444 28.6849 11.4203V13.7186C28.6836 14.0944 28.5339 14.4546 28.2684 14.7206C28.0029 14.9866 27.643 15.1369 27.2671 15.1389C26.8911 15.1376 26.5309 14.9874 26.2652 14.7213C25.9995 14.4551 25.85 14.0946 25.8493 13.7186V11.4203C25.85 11.0442 25.9995 10.6837 26.2652 10.4176C26.5309 10.1515 26.8911 10.0013 27.2671 10Z" fill="white"/>
<path fill-rule="evenodd" clip-rule="evenodd" d="M33.8039 10C34.1802 10.0013 34.5407 10.1514 34.8068 10.4174C35.0728 10.6835 35.2229 11.044 35.2242 11.4203V13.7186C35.2229 14.0949 35.0728 14.4554 34.8068 14.7214C34.5407 14.9875 34.1802 15.1376 33.8039 15.1389C33.4276 15.1376 33.0671 14.9875 32.8011 14.7214C32.535 14.4554 32.3849 14.0949 32.3836 13.7186V11.4203C32.3849 11.044 32.535 10.6835 32.8011 10.4174C33.0671 10.1514 33.4276 10.0013 33.8039 10Z" fill="white"/>
<path fill-rule="evenodd" clip-rule="evenodd" d="M11.8182 13.1067H10.6143C10.1866 13.108 9.77673 13.2785 9.47427 13.581C9.17182 13.8834 9.00131 14.2933 9 14.721V36.6471C9.00131 37.0748 9.17182 37.4846 9.47427 37.7871C9.77673 38.0895 10.1866 38.26 10.6143 38.2613H37.3857C37.8134 38.26 38.2233 38.0895 38.5257 37.7871C38.8282 37.4846 38.9987 37.0748 39 36.6471V14.721C38.9987 14.2933 38.8282 13.8834 38.5257 13.581C38.2233 13.2785 37.8134 13.108 37.3857 13.1067H36.1818V13.8032C36.1921 14.1217 36.1383 14.4391 36.0235 14.7365C35.9087 15.0339 35.7353 15.3051 35.5136 15.5341C35.2919 15.7631 35.0264 15.9452 34.7329 16.0695C34.4394 16.1939 34.1239 16.258 33.8052 16.258C33.4864 16.258 33.1709 16.1939 32.8774 16.0695C32.584 15.9452 32.3185 15.7631 32.0968 15.5341C31.875 15.3051 31.7016 15.0339 31.5868 14.7365C31.472 14.4391 31.4182 14.1217 31.4285 13.8032V13.1067H29.6451V13.8032C29.6554 14.1217 29.6015 14.4391 29.4867 14.7365C29.3719 15.0339 29.1985 15.3051 28.9768 15.5341C28.7551 15.7631 28.4896 15.9452 28.1961 16.0695C27.9026 16.1939 27.5871 16.258 27.2684 16.258C26.9496 16.258 26.6342 16.1939 26.3407 16.0695C26.0472 15.9452 25.7817 15.7631 25.56 15.5341C25.3383 15.3051 25.1649 15.0339 25.0501 14.7365C24.9353 14.4391 24.8814 14.1217 24.8917 13.8032V13.1067H23.1083V13.8032C23.1186 14.1217 23.0647 14.4391 22.9499 14.7365C22.8351 15.0339 22.6617 15.3051 22.44 15.5341C22.2183 15.7631 21.9528 15.9452 21.6593 16.0695C21.3659 16.1939 21.0504 16.258 20.7316 16.258C20.4129 16.258 20.0974 16.1939 19.8039 16.0695C19.5104 15.9452 19.2449 15.7631 19.0232 15.5341C18.8015 15.3051 18.6281 15.0339 18.5133 14.7365C18.3985 14.4391 18.3446 14.1217 18.3549 13.8032V13.1067H16.5715V13.8032C16.5818 14.1217 16.528 14.4391 16.4132 14.7365C16.2984 15.0339 16.125 15.3051 15.9032 15.5341C15.6815 15.7631 15.416 15.9452 15.1226 16.0695C14.8291 16.1939 14.5136 16.258 14.1948 16.258C13.8761 16.258 13.5606 16.1939 13.2671 16.0695C12.9736 15.9452 12.7082 15.7631 12.4864 15.5341C12.2647 15.3051 12.0913 15.0339 11.9765 14.7365C11.8617 14.4391 11.8079 14.1217 11.8182 13.8032V13.1067ZM31.125 21.4991H16.875C16.6385 21.5004 16.4122 21.5949 16.245 21.762C16.0778 21.9292 15.9833 22.1556 15.982 22.392C15.9827 22.6286 16.0769 22.8554 16.2443 23.0227C16.4116 23.19 16.6383 23.2843 16.875 23.285H31.125C31.3619 23.285 31.589 23.1909 31.7565 23.0234C31.9239 22.856 32.018 22.6289 32.018 22.392C32.0173 22.1554 31.923 21.9286 31.7557 21.7613C31.5884 21.594 31.3617 21.4997 31.125 21.4991ZM31.125 26.1678H16.875C16.6386 26.1691 16.4122 26.2636 16.245 26.4308C16.0778 26.598 15.9833 26.8244 15.982 27.0608C15.9827 27.2974 16.077 27.5242 16.2443 27.6915C16.4116 27.8588 16.6384 27.9531 16.875 27.9538H31.125C31.3619 27.9538 31.589 27.8597 31.7565 27.6922C31.9239 27.5247 32.018 27.2976 32.018 27.0608C32.0174 26.8242 31.9231 26.5974 31.7557 26.4301C31.5884 26.2628 31.3617 26.1685 31.125 26.1678ZM16.875 30.8366H31.125C31.3617 30.8373 31.5884 30.9315 31.7557 31.0989C31.9231 31.2662 32.0174 31.4929 32.018 31.7296C32.018 31.8468 31.9949 31.9629 31.95 32.0713C31.9052 32.1796 31.8394 32.2781 31.7565 32.361C31.6735 32.4439 31.5751 32.5097 31.4668 32.5545C31.3584 32.5994 31.2423 32.6225 31.125 32.6225H16.875C16.6384 32.6219 16.4116 32.5276 16.2443 32.3602C16.077 32.1929 15.9827 31.9662 15.982 31.7296C15.9833 31.4931 16.0778 31.2668 16.245 31.0996C16.4122 30.9324 16.6386 30.8379 16.875 30.8366Z" fill="white"/>
<defs>
<linearGradient id="paint0_linear" x1="7.54286" y1="48" x2="24" y2="48" gradientUnits="userSpaceOnUse">
<stop stop-color="#1E61B1"/>
<stop offset="1" stop-color="#1581E0"/>
</linearGradient>
</defs>
</svg>
