<svg width="48" height="48" viewBox="0 0 48 48" fill="none" xmlns="http://www.w3.org/2000/svg">
<circle cx="24" cy="24" r="23.6" fill="url(#paint0_linear)" stroke="white" stroke-width="0.8"/>
<path fill-rule="evenodd" clip-rule="evenodd" d="M30.7964 9.01056H11.8656L11.8603 9C11.4175 9.00139 10.9933 9.1779 10.6802 9.49098C10.3671 9.80407 10.1906 10.2283 10.1892 10.6711V14.557H9.51606C9.45015 14.5521 9.38394 14.5609 9.32156 14.5827C9.25919 14.6046 9.20199 14.6391 9.15355 14.6841C9.10512 14.729 9.06648 14.7835 9.04006 14.8441C9.01364 14.9047 9 14.9701 9 15.0362C9 15.1023 9.01364 15.1676 9.04006 15.2282C9.06648 15.2888 9.10512 15.3433 9.15355 15.3883C9.20199 15.4332 9.25919 15.4677 9.32156 15.4896C9.38394 15.5115 9.45015 15.5202 9.51606 15.5153H12.6655V16.1515H10.1892V18.4245H9.51606C9.45015 18.4196 9.38394 18.4284 9.32156 18.4502C9.25919 18.4721 9.20199 18.5066 9.15355 18.5516C9.10512 18.5965 9.06648 18.651 9.04006 18.7116C9.01364 18.7722 9 18.8376 9 18.9037C9 18.9697 9.01364 19.0351 9.04006 19.0957C9.06648 19.1563 9.10512 19.2108 9.15355 19.2557C9.20199 19.3007 9.25919 19.3352 9.32156 19.3571C9.38394 19.3789 9.45015 19.3877 9.51606 19.3828H12.6655V20.0058H10.1892V22.3263H9.51606C9.45015 22.3214 9.38394 22.3302 9.32156 22.352C9.25919 22.3739 9.20199 22.4084 9.15355 22.4534C9.10512 22.4983 9.06648 22.5528 9.04006 22.6134C9.01364 22.674 9 22.7394 9 22.8054C9 22.8715 9.01364 22.9369 9.04006 22.9975C9.06648 23.0581 9.10512 23.1126 9.15355 23.1575C9.20199 23.2025 9.25919 23.237 9.32156 23.2589C9.38394 23.2807 9.45015 23.2895 9.51606 23.2846H12.6655V23.9208H10.1892V26.1991H9.51606C9.45015 26.1942 9.38394 26.2029 9.32156 26.2248C9.25919 26.2466 9.20199 26.2811 9.15355 26.3261C9.10512 26.3711 9.06648 26.4256 9.04006 26.4861C9.01364 26.5467 9 26.6121 9 26.6782C9 26.7443 9.01364 26.8097 9.04006 26.8703C9.06648 26.9309 9.10512 26.9853 9.15355 27.0303C9.20199 27.0753 9.25919 27.1098 9.32156 27.1316C9.38394 27.1535 9.45015 27.1623 9.51606 27.1574H12.6655V27.7962H10.1892V30.1141H9.51606C9.45015 30.1092 9.38394 30.1179 9.32156 30.1398C9.25919 30.1616 9.20199 30.1961 9.15355 30.2411C9.10512 30.2861 9.06648 30.3406 9.04006 30.4011C9.01364 30.4617 9 30.5271 9 30.5932C9 30.6593 9.01364 30.7247 9.04006 30.7853C9.06648 30.8459 9.10512 30.9003 9.15355 30.9453C9.20199 30.9903 9.25919 31.0248 9.32156 31.0466C9.38394 31.0685 9.45015 31.0772 9.51606 31.0724H12.6813V31.7086H10.2051V35.0217C10.2065 35.4644 10.383 35.8887 10.6961 36.2018C11.0091 36.5148 11.4334 36.6913 11.8761 36.6927H25.8677C24.1656 35.7206 22.8918 34.1433 22.2998 32.2747C21.7078 30.406 21.841 28.383 22.6729 26.6081C23.5048 24.8331 24.9744 23.4365 26.7893 22.6959C28.6042 21.9553 30.6314 21.9252 32.4675 22.6114V10.6711C32.4633 10.2301 32.2856 9.8086 31.9728 9.49779C31.66 9.18698 31.2374 9.01193 30.7964 9.01056ZM21.4617 16.6584C21.9422 16.6584 22.4118 16.8009 22.8113 17.0679C23.2107 17.3349 23.522 17.7144 23.7058 18.1583C23.8895 18.6022 23.9375 19.0907 23.8435 19.5619C23.7496 20.0331 23.518 20.4659 23.1781 20.8054C22.8382 21.145 22.4052 21.3761 21.9339 21.4695C21.4626 21.5629 20.9742 21.5144 20.5304 21.3302C20.0867 21.146 19.7075 20.8343 19.441 20.4345C19.1744 20.0348 19.0324 19.565 19.033 19.0845C19.0337 18.4408 19.2898 17.8237 19.7452 17.3688C20.2006 16.9139 20.818 16.6584 21.4617 16.6584ZM18.2938 21.9145H20.4057L20.7489 22.5507L21.1475 23.3136L21.5409 22.5507L21.8788 21.9039H23.9907C24.4033 21.9057 24.8099 22.0018 25.1796 22.1848C25.5493 22.3678 25.8722 22.6329 26.1238 22.9599C25.0219 23.5255 24.0706 24.3454 23.3485 25.3516C22.6264 26.3579 22.1543 27.5216 21.9712 28.7466H18.307V25.1906C18.3112 25.1425 18.3053 25.094 18.2898 25.0483C18.2743 25.0025 18.2494 24.9605 18.2167 24.9249C18.1841 24.8892 18.1444 24.8608 18.1002 24.8413C18.0559 24.8219 18.0082 24.8118 17.9598 24.8118C17.9115 24.8118 17.8637 24.8219 17.8195 24.8413C17.7753 24.8608 17.7356 24.8892 17.7029 24.9249C17.6703 24.9605 17.6454 25.0025 17.6299 25.0483C17.6143 25.094 17.6085 25.1425 17.6127 25.1906V28.7492H15.5879V24.6204C15.59 23.9034 15.8757 23.2163 16.3827 22.7093C16.8897 22.2023 17.5768 21.9166 18.2938 21.9145Z" fill="white"/>
<path fill-rule="evenodd" clip-rule="evenodd" d="M29.6533 24.2244C30.7344 24.2255 31.791 24.547 32.6894 25.1484C33.5878 25.7498 34.2877 26.604 34.7007 27.6031C35.1137 28.6022 35.2212 29.7013 35.0096 30.7615C34.7981 31.8217 34.277 32.7954 33.5121 33.5595C32.7473 34.3236 31.7731 34.8438 30.7127 35.0543C29.6523 35.2648 28.5533 35.1562 27.5546 34.7423C26.5559 34.3283 25.7024 33.6276 25.1018 32.7286C24.5013 31.8296 24.1808 30.7728 24.1808 29.6917C24.1808 28.2417 24.7568 26.851 25.7821 25.8257C26.8074 24.8004 28.1981 24.2244 29.6481 24.2244H29.6533ZM29.6481 23.208C30.877 23.2069 32.081 23.5551 33.1197 24.212C34.1583 24.8689 34.9889 25.8075 35.5146 26.9183C36.0402 28.0292 36.2394 29.2665 36.0888 30.4862C35.9382 31.7059 35.444 32.8577 34.6639 33.8073L38.8693 37.6484C39.3102 38.0497 38.5314 38.8944 38.0773 38.4668L33.8719 34.6257C33.0771 35.3033 32.1303 35.7789 31.1121 36.0119C30.0939 36.2449 29.0345 36.2285 28.0241 35.9641C27.0136 35.6996 26.082 35.195 25.3085 34.493C24.535 33.7911 23.9426 32.9127 23.5816 31.9326C23.2205 30.9525 23.1017 29.8996 23.2351 28.8637C23.3685 27.8277 23.7502 26.8393 24.3477 25.9826C24.9452 25.1259 25.7408 24.4263 26.6669 23.9432C27.593 23.4601 28.6221 23.2079 29.6666 23.208H29.6481Z" fill="white"/>
<defs>
<linearGradient id="paint0_linear" x1="7.54286" y1="48" x2="24" y2="48" gradientUnits="userSpaceOnUse">
<stop stop-color="#1E61B1"/>
<stop offset="1" stop-color="#1581E0"/>
</linearGradient>
</defs>
</svg>
