<svg width="48" height="48" viewBox="0 0 48 48" fill="none" xmlns="http://www.w3.org/2000/svg">
<circle cx="24" cy="24" r="23.6" fill="url(#paint0_linear)" stroke="white" stroke-width="0.8"/>
<path d="M36.6 36.144V17.6L27 8H14.2C12.44 8 11.016 9.44 11.016 11.2L11 36.8C11 38.56 12.424 40 14.184 40H33.4C34.12 40 34.76 39.76 35.304 39.36L28.216 32.272C26.936 33.104 25.432 33.6 23.8 33.6C19.384 33.6 15.8 30.016 15.8 25.6C15.8 21.184 19.384 17.6 23.8 17.6C28.216 17.6 31.8 21.184 31.8 25.6C31.8 27.232 31.304 28.736 30.472 30L36.6 36.144ZM19 25.6C19 28.256 21.144 30.4 23.8 30.4C26.456 30.4 28.6 28.256 28.6 25.6C28.6 22.944 26.456 20.8 23.8 20.8C21.144 20.8 19 22.944 19 25.6Z" fill="white"/>
<defs>
<linearGradient id="paint0_linear" x1="7.54286" y1="48" x2="24" y2="48" gradientUnits="userSpaceOnUse">
<stop stop-color="#1E61B1"/>
<stop offset="1" stop-color="#1581E0"/>
</linearGradient>
</defs>
</svg>
