<svg width="48" height="48" viewBox="0 0 48 48" fill="none" xmlns="http://www.w3.org/2000/svg">
<circle cx="24" cy="24" r="23.6" fill="url(#paint0_linear)" stroke="white" stroke-width="0.8"/>
<path fill-rule="evenodd" clip-rule="evenodd" d="M10.5788 11.2331H16.6487V14.3472C16.6527 14.6833 16.7891 15.0043 17.0282 15.2405C17.2673 15.4768 17.5899 15.6093 17.926 15.6092H26.2159C26.5493 15.6053 26.868 15.471 27.1038 15.2352C27.3397 14.9994 27.4739 14.6807 27.4779 14.3472V11.2331H33.5477C33.966 11.2344 34.3668 11.4012 34.6626 11.697C34.9584 11.9928 35.1252 12.3936 35.1265 12.8119V26.2903C33.3767 25.6143 31.4532 25.5325 29.6523 26.0575C27.8515 26.5825 26.2732 27.6852 25.1608 29.1955C24.0483 30.7059 23.4635 32.5402 23.4962 34.4157C23.529 36.2912 24.1776 38.1039 25.3422 39.5745H10.5788C10.1605 39.5732 9.75969 39.4064 9.46391 39.1106C9.16812 38.8148 9.00135 38.414 9 37.9957V12.8119C9.00135 12.3936 9.16812 11.9928 9.46391 11.697C9.75969 11.4012 10.1605 11.2344 10.5788 11.2331Z" fill="white"/>
<path fill-rule="evenodd" clip-rule="evenodd" d="M20.9839 8.96709H23.1298V11.1156H20.9839V8.96709ZM18.815 10.0017H19.326C19.326 9.96341 19.326 9.92253 19.326 9.88421V8.77038C19.3306 8.30273 19.5183 7.8555 19.8487 7.52457C20.1792 7.19363 20.6261 7.00532 21.0938 7H23.0226C23.4914 7.00135 23.9407 7.18839 24.272 7.52018C24.6033 7.85197 24.7897 8.3015 24.7904 8.77038V9.88421C24.7904 9.92253 24.7904 9.96341 24.7904 10.0017H25.3013C25.5095 10.0024 25.709 10.0856 25.856 10.2331C26.003 10.3806 26.0856 10.5803 26.0856 10.7886V13.8695C26.0866 13.9735 26.067 14.0766 26.0279 14.1729C25.9888 14.2693 25.931 14.3569 25.8579 14.4308C25.7847 14.5047 25.6976 14.5633 25.6017 14.6034C25.5057 14.6434 25.4027 14.664 25.2988 14.664H18.815C18.6072 14.6633 18.4081 14.5805 18.2612 14.4335C18.1143 14.2866 18.0314 14.0875 18.0307 13.8797V10.7886C18.0307 10.5803 18.1133 10.3806 18.2603 10.2331C18.4073 10.0856 18.6068 10.0024 18.815 10.0017Z" fill="white"/>
<path fill-rule="evenodd" clip-rule="evenodd" d="M35.7715 28.6667C34.6641 27.9268 33.3622 27.5318 32.0303 27.5318C30.2443 27.5318 28.5315 28.2413 27.2686 29.5042C26.0057 30.7671 25.2962 32.4799 25.2962 34.2659C25.2962 35.5978 25.6911 36.8998 26.4311 38.0072C27.171 39.1146 28.2228 39.9777 29.4533 40.4874C30.6838 40.9971 32.0378 41.1304 33.344 40.8706C34.6503 40.6108 35.8502 39.9694 36.792 39.0276C37.7338 38.0859 38.3751 36.886 38.635 35.5797C38.8948 34.2734 38.7615 32.9194 38.2518 31.6889C37.7421 30.4584 36.879 29.4067 35.7715 28.6667ZM32.1938 36.4093L35.359 33.244V33.2466C35.5076 33.0983 35.5912 32.8971 35.5915 32.6871C35.5915 32.4764 35.5078 32.2743 35.3588 32.1253C35.2098 31.9763 35.0077 31.8926 34.797 31.8926C34.6926 31.8926 34.5893 31.9131 34.4928 31.953C34.3964 31.9928 34.3088 32.0513 34.2349 32.1251L31.6343 34.736L29.823 32.917C29.7499 32.8432 29.6631 32.7843 29.5676 32.7433C29.471 32.7039 29.3679 32.6831 29.2636 32.682C29.1593 32.6834 29.0562 32.7042 28.9596 32.7433C28.8639 32.784 28.7771 32.843 28.7041 32.917C28.6294 32.9895 28.5703 33.0765 28.5304 33.1725C28.4922 33.2694 28.4714 33.3724 28.4691 33.4765C28.4699 33.5808 28.4907 33.684 28.5304 33.7805C28.5703 33.8766 28.6294 33.9635 28.7041 34.036L31.0748 36.4093C31.1481 36.4823 31.2349 36.5404 31.3303 36.5804C31.4264 36.6214 31.5298 36.6422 31.6343 36.6417C31.7387 36.6417 31.842 36.6208 31.9383 36.5804C32.0341 36.5412 32.121 36.483 32.1938 36.4093Z" fill="white"/>
<defs>
<linearGradient id="paint0_linear" x1="7.54286" y1="48" x2="24" y2="48" gradientUnits="userSpaceOnUse">
<stop stop-color="#1E61B1"/>
<stop offset="1" stop-color="#1581E0"/>
</linearGradient>
</defs>
</svg>
